# xmcd
#
# Track frame offsets:
#	150
#	10012
#	18337
#	30047
#	43120
#	55550
#	67812
#	75897
#	88110
#	97825
#	111175
#	120627
#	129845
#	142882
#	154212
#
# Disc length: 2228 seconds
#
# Revision: 1
# Processed by: cddbd v1.5.1PL0 Copyright (c) Steve Scherf et al.
# Submitted via: CDex 1.50Beta5
#
DISCID=9d08b20f
DTITLE=モーニング娘。・稲葉貴子・後藤真希・カントリー娘。・ココナッツ娘。・メロン記念日・前田有紀・松浦亜弥・藤本美貴 - 新作童謡ポップス 二
DYEAR=1900
DGENRE=
TTITLE0=石川梨華・小川麻琴・アヤカ・大谷雅恵/野菜 is great!
TTITLE1=安倍なつみ・前田有紀・松浦亜弥/笑顔バンザイ
TTITLE2=新垣里沙・稲葉貴子・あさみ・松浦亜弥/はや〜い乗り物
TTITLE3=安倍なつみ・保田圭・後藤真希/なみだのメニュー
TTITLE4=加護亜依・斉藤瞳・前田有紀・藤本美貴/ともだちだもんね
TTITLE5=辻希美・加護亜依・アヤカ・里田まい/ウッフン アッフン プッチュンパ〜恋する天使と呼んでね
TTITLE6=矢口真里・ミカ/発表会
TTITLE7=稲葉貴子・ミカ・大谷雅恵・前田有紀/『花』
TTITLE8=吉澤ひとみ・高橋愛・あさみ・柴田あゆみ/キラッキー
TTITLE9=保田圭・稲葉貴子・松浦亜弥/バルコニーじゃなくて縁側といいます
TTITLE10=辻希美・紺野あさ美・ミカ・村田めぐみ・前田有紀・藤本美貴・里田まい/キュッ!キュッ!キュッ!
TTITLE11=飯田圭織・矢口真里・後藤真希・斉藤瞳/ざぶとん
TTITLE12=紺野あさ美・後藤真希・アヤカ・柴田あゆみ/海よごめんね
TTITLE13=稲葉貴子・あさみ・前田有紀/すいかのたね
TTITLE14=稲葉貴子・村田めぐみ・前田有紀・里田まい/「また会えるよね」
EXTD=
EXTT0=
EXTT1=
EXTT2=
EXTT3=
EXTT4=
EXTT5=
EXTT6=
EXTT7=
EXTT8=
EXTT9=
EXTT10=
EXTT11=
EXTT12=
EXTT13=
EXTT14=
PLAYORDER=
